<svg xmlns="http://www.w3.org/2000/svg" viewBox="0 0 128 128">
  <defs>
    <linearGradient id="flame" x1="0%" y1="100%" x2="0%" y2="0%">
      <stop offset="0%" style="stop-color:#10b981;stop-opacity:1" />
      <stop offset="100%" style="stop-color:#06b6d4;stop-opacity:1" />
    </linearGradient>
  </defs>
  <rect width="128" height="128" fill="#080b0f"/>
  <path d="M64 16 C 56 24, 48 40, 48 56 C 48 72, 56 84, 64 84 C 72 84, 80 72, 80 56 C 80 40, 72 24, 64 16 Z" fill="url(#flame)" opacity="0.9"/>
  <path d="M64 28 C 58 34, 54 44, 54 56 C 54 68, 58 76, 64 76 C 70 76, 74 68, 74 56 C 74 44, 70 34, 64 28 Z" fill="url(#flame)" opacity="0.7"/>
  <text x="64" y="110" font-size="32" font-weight="700" fill="#10b981" text-anchor="middle" font-family="system-ui, sans-serif">f</text>
</svg>
